<?xml version="1.0" encoding="UTF-8"?>
<svg width="185px" height="60px" viewBox="0 0 185 60" version="1.1" xmlns="http://www.w3.org/2000/svg" xmlns:xlink="http://www.w3.org/1999/xlink">
    <!-- Generator: sketchtool 50.2 (55047) - http://www.bohemiancoding.com/sketch -->
    <title>5EC8EBD1-742E-4813-8BBF-E36A830683DD</title>
    <desc>Created with sketchtool.</desc>
    <defs></defs>
    <g id="Page-1" stroke="none" stroke-width="1" fill="none" fill-rule="evenodd">
        <g id="Automation-Academy-Homepage-new" transform="translate(-300.000000, -70.000000)" fill="#FFFFFF">
            <g id="Group-6" transform="translate(300.000000, 70.000000)">
                <g id="AA_Circle_Type_Horz">
                    <g id="Group" transform="translate(73.188875, 1.874750)" font-family="Hellix-Medium, Hellix" font-size="21" font-weight="400" line-spacing="26">
                        <text id="Automation">
                            <tspan x="0" y="21.25">Automation</tspan>
                        </text>
                        <text id="Academy">
                            <tspan x="0" y="42.875">Academy</tspan>
                        </text>
                    </g>
                    <g id="Group" fill-rule="nonzero">
                        <path d="M59.0913328,30.1325747 C59.0094611,46.1990401 45.9186473,59.1571136 29.8521818,59.0752419 C13.7857164,58.9933702 0.827642883,45.9025564 0.909514618,29.8360909 C0.991386354,13.7696255 14.0822002,0.811551973 30.1486656,0.893423709 C46.215131,0.975295445 59.1732045,14.0661092 59.0913328,30.1325747 Z M27.0909091,38.1818182 C27.0909091,39.8181818 28.4545455,41.0909091 29.9090909,41 C31.4545455,41 32.7272727,39.7272727 32.7272727,38.1818182 C32.7272727,36.6363636 31.4545455,35.3636364 29.9090909,35.3636364 C28.3636364,35.3636364 27.0909091,36.6363636 27.0909091,38.1818182 Z M42.1818182,44.3636364 C43.6363636,43.7272727 44.1818182,42 43.5454545,40.5454545 L38,28.7272727 C37.3636364,27.2727273 35.6363636,26.7272727 34.1818182,27.3636364 C32.7272727,28 32.1818182,29.7272727 32.8181818,31.1818182 L38.3636364,43 C38.8181818,44 39.9090909,44.6363636 40.9090909,44.6363636 C41.4545455,44.6363636 41.8181818,44.5454545 42.1818182,44.3636364 Z M19,44.6363636 C20.1818182,44.6363636 21.2727273,43.9090909 21.6363636,42.7272727 L31,16.6363636 C31.5454545,15.1818182 30.7272727,13.5454545 29.2727273,13 C27.8181818,12.4545455 26.1818182,13.2727273 25.6363636,14.7272727 L16.3636364,40.8181818 C15.8181818,42.2727273 16.6363636,43.9090909 18.0909091,44.4545455 C18.3636364,44.5454545 18.7272727,44.6363636 19,44.6363636 Z" id="Combined-Shape"></path>
                    </g>
                </g>
            </g>
        </g>
    </g>
</svg>